<?xml version="1.0" encoding="iso-8859-1"?>
<!-- Uploaded to: SVG Repo, www.svgrepo.com, Generator: SVG Repo Mixer Tools -->
<svg height="800px" width="800px" version="1.1" id="Layer_1" xmlns="http://www.w3.org/2000/svg" xmlns:xlink="http://www.w3.org/1999/xlink" 
	 viewBox="0 0 503.893 503.893" xml:space="preserve">
<polygon style="fill:#FFD0A1;" points="38.613,4.267 38.613,499.2 89.813,448 141.013,499.2 175.147,465.067 209.28,499.2 
	243.413,465.067 260.48,482.133 294.613,448 328.747,482.133 354.347,456.533 379.947,482.133 431.147,430.933 465.28,465.067 
	465.28,4.267 "/>
<path style="fill:#51565F;" d="M38.613,503.467c-0.853,0-0.853,0-1.707,0c-1.707-0.853-2.56-2.56-2.56-4.267V4.267
	c0-2.56,1.707-4.267,4.267-4.267H465.28c2.56,0,4.267,1.707,4.267,4.267v460.8c0,2.56-1.707,4.267-4.267,4.267
	s-4.267-1.707-4.267-4.267V8.533H42.88V488.96l43.52-43.52c1.707-1.707,4.267-1.707,5.973,0l47.787,47.787l30.72-30.72
	c1.707-1.707,4.267-1.707,5.973,0l30.72,30.72l30.72-30.72c1.707-1.707,4.267-1.707,5.973,0l13.653,13.653l30.72-30.72
	c1.707-1.707,4.267-1.707,5.973,0l30.72,30.72l22.187-22.187c1.707-1.707,4.267-1.707,5.973,0l22.187,22.187l47.787-47.787
	c1.707-1.707,4.267-1.707,5.973,0s1.707,4.267,0,5.973l-51.2,51.2c-1.707,1.707-4.267,1.707-5.973,0l-22.187-22.187l-22.187,22.187
	c-1.707,1.707-4.267,1.707-5.973,0l-30.72-30.72l-30.72,30.72c-1.707,1.707-4.267,1.707-5.973,0l-13.653-13.653l-30.72,30.72
	c-1.707,1.707-4.267,1.707-5.973,0l-30.72-30.72l-30.72,30.72c-1.707,1.707-4.267,1.707-5.973,0L88.96,454.827l-47.787,47.787
	C41.173,502.613,39.467,503.467,38.613,503.467z M209.28,332.8h-34.133c-2.56,0-4.267-1.707-4.267-4.267
	c0-2.56,1.707-4.267,4.267-4.267h34.133c2.56,0,4.267,1.707,4.267,4.267C213.547,331.093,211.84,332.8,209.28,332.8z M141.013,332.8
	h-17.067c-2.56,0-4.267-1.707-4.267-4.267c0-2.56,1.707-4.267,4.267-4.267h17.067c2.56,0,4.267,1.707,4.267,4.267
	C145.28,331.093,143.573,332.8,141.013,332.8z M354.347,315.733c-2.56,0-4.267-1.707-4.267-4.267V307.2
	c-14.507-1.707-25.6-14.507-25.6-29.867c0-2.56,1.707-4.267,4.267-4.267s4.267,1.707,4.267,4.267
	c0,11.947,9.387,21.333,21.333,21.333c11.947,0,21.333-9.387,21.333-21.333S366.293,256,354.347,256
	c-16.213,0-29.867-13.653-29.867-29.867c0-15.36,11.093-27.307,25.6-29.867V192c0-2.56,1.707-4.267,4.267-4.267
	s4.267,1.707,4.267,4.267v4.267c14.507,1.707,25.6,14.507,25.6,29.867c0,2.56-1.707,4.267-4.267,4.267
	c-2.56,0-4.267-1.707-4.267-4.267c0-11.947-9.387-21.333-21.333-21.333c-11.947,0-21.333,9.387-21.333,21.333
	s9.387,21.333,21.333,21.333c16.213,0,29.867,13.653,29.867,29.867c0,15.36-11.093,27.307-25.6,29.867v4.267
	C358.613,314.027,356.907,315.733,354.347,315.733z M243.413,281.6h-68.267c-2.56,0-4.267-1.707-4.267-4.267
	s1.707-4.267,4.267-4.267h68.267c2.56,0,4.267,1.707,4.267,4.267S245.973,281.6,243.413,281.6z M141.013,281.6h-17.067
	c-2.56,0-4.267-1.707-4.267-4.267s1.707-4.267,4.267-4.267h17.067c2.56,0,4.267,1.707,4.267,4.267S143.573,281.6,141.013,281.6z
	 M260.48,230.4h-85.333c-2.56,0-4.267-1.707-4.267-4.267s1.707-4.267,4.267-4.267h85.333c2.56,0,4.267,1.707,4.267,4.267
	S263.04,230.4,260.48,230.4z M141.013,230.4h-17.067c-2.56,0-4.267-1.707-4.267-4.267s1.707-4.267,4.267-4.267h17.067
	c2.56,0,4.267,1.707,4.267,4.267S143.573,230.4,141.013,230.4z M226.347,179.2h-51.2c-2.56,0-4.267-1.707-4.267-4.267
	c0-2.56,1.707-4.267,4.267-4.267h51.2c2.56,0,4.267,1.707,4.267,4.267C230.613,177.493,228.907,179.2,226.347,179.2z M141.013,179.2
	h-17.067c-2.56,0-4.267-1.707-4.267-4.267c0-2.56,1.707-4.267,4.267-4.267h17.067c2.56,0,4.267,1.707,4.267,4.267
	C145.28,177.493,143.573,179.2,141.013,179.2z M379.947,93.867h-34.133c-2.56,0-4.267-1.707-4.267-4.267
	c0-2.56,1.707-4.267,4.267-4.267h34.133c2.56,0,4.267,1.707,4.267,4.267C384.213,92.16,382.507,93.867,379.947,93.867z
	 M260.48,93.867H123.947c-2.56,0-4.267-1.707-4.267-4.267c0-2.56,1.707-4.267,4.267-4.267H260.48c2.56,0,4.267,1.707,4.267,4.267
	C264.747,92.16,263.04,93.867,260.48,93.867z"/>
</svg>